<svg viewBox="0 0 512 512" xmlns="http://www.w3.org/2000/svg" fill-rule="evenodd" clip-rule="evenodd" stroke-linejoin="round" stroke-miterlimit="2"><path d="M255.999 6c-138.045 0-250 111.954-250 249.999 0 138.045 111.955 250 250 250 138.045 0 250-111.955 250-250 0-138.045-111.955-250-250-250zm-.455 23.84h.046c.136.023.272.023.409 0 103.363 0 190.545 69.364 217.5 164.023a393.673 393.673 0 01-95.75 124.908c-19.25 16.66-40.296 31.432-63.41 41.864-23.136 10.41-48.545 16.34-73.795 14.91a127.007 127.007 0 01-51.613-14.387 415.384 415.384 0 00115.409-93.636c21.727-25.364 40.704-54.319 48.068-87.114 3.75-16.409 4.318-33.636.909-50.159a92.679 92.679 0 00-22.705-44.659 91.305 91.305 0 00-42.159-24.955 110.177 110.177 0 00-48.931-1.772c-32.341 5.932-61.205 24.682-84.205 47.909-40.613 40.909-65.682 98.636-61.068 156.25 2.318 28.795 11.91 57.068 28.455 80.772 3.25 4.66 6.863 9.046 10.613 13.273a368.299 368.299 0 01-70.136 16.795 226.09 226.09 0 01-33.227-117.977c0-123.84 101.75-225.795 225.59-226.045zm1.591 45.91c.091-.024.364.045.273.022 15.727 0 31.523 4.795 44 14.25a72.702 72.702 0 0124.273 33.863 93.423 93.423 0 014.363 42c-3.25 28.25-17.5 54.273-34.84 77.114-30.773 40.409-71.728 72.795-117.25 95.454a320.129 320.129 0 01-13.228 6.227 116.505 116.505 0 01-23.863-29.431c-13.41-23.728-17.819-51.91-15.228-79.137 2.637-27.25 11.955-53.545 24.591-77.954 14.614-28.273 34.455-54.954 62.091-70.227a94.06 94.06 0 0144.84-12.205l-.022.023zm223.409 154.772c.954 8.34 1.614 16.795 1.614 25.386 0 124.932-101.182 226.204-226.136 226.204-66.478.023-129.682-29.364-172.5-80.227a412.653 412.653 0 0072.045-24.09c10.477 7.863 21.977 14.408 34.25 19.09 36.136 13.864 77.09 11.818 113.545-.796 36.432-12.613 68.66-35.204 96.727-61.477a415.208 415.208 0 0080.455-104.09z" fill-rule="nonzero"/></svg>